<svg xmlns="http://www.w3.org/2000/svg" viewBox="0 0 498.57 242.69"><title>epicsvg</title><g id="Layer_2" data-name="Layer 2"><g id="Layer_1-2" data-name="Layer 1"><path d="M34.7,195l74.58-10.34c1.52,2.41,2.53,3.29,2.63,4.27,3.43,32.31,3.42,32.34-29,38.42-26.56,5-53.15,9.87-82.86,15.38,0-21.12-.11-40.06,0-59C.45,129.4,1.35,75.11,1.1,20.83,1,7.15,4.44,1.91,19,2.42c30.37,1.07,60.81.33,92.63.33.44,9,.52,16.22,1.19,23.35,1,10.92-3.83,15.42-14.6,15.27-20.29-.28-40.58-.08-62.18-.08v57l57.49-3.47c0,11.11.81,21.61-.48,31.84-.4,3.13-6.21,6.93-10.19,8-7.58,2-15.61,2.51-23.5,3.06-25.77,1.82-24.69-.66-24.68,28.23ZM12.46,219l84.61-15.32L96,197.23,20.64,208.78V120.93L76.72,114l-.78-6.3-54.71,3.35V23.75L96,20c-.11-1.72-.22-3.43-.32-5.15-22.88,0-45.78.37-68.65-.16-11-.26-14.84,3.79-14.72,14.82.45,41.3.17,82.61.16,123.92Z"/><path d="M497,46.18l-31,1.61-4.76-17.7h-36.8V135.3c11-1.55,20.91-2.6,30.65-4.56,2.76-.55,7.11-3.76,7.13-5.79.22-25.78,20.68-15.12,35.51-21.18,0,12.27,2.22,22.92-.7,31.89-2.33,7.16-10,15.78-16.94,17.63-23.93,6.4-48.53,10.34-73,14.78-12.05,2.19-18.42-3.73-18.45-15.79q-.19-66.09,0-132.17c0-12.46,6.59-18.55,19-18.79C428,.92,448.3.1,468.62,0c26.09-.13,29.53,3.49,29.28,29.08C497.85,34.08,497.41,39.08,497,46.18ZM476.88,32c7.78-22.34,6.31-24.34-14.79-24-15.24.27-30.5,1.25-45.72.77-12.28-.38-16.77,3.72-16.47,16.56.81,35,.22,70,.32,105.06,0,7,.6,14,1,22.78,23.94-4.18,45.56-7.8,67.12-11.78,15.49-2.86,18.67-12.72,8-27.63-1,7.42-1.94,13.85-2.94,21L407.55,146c0-42.31-.21-82.28.42-122.23,0-3.12,5.9-8.64,9.25-8.8,18.47-.86,37-.41,55.81-.41C474.39,20.72,475.63,26.36,476.88,32Z"/><path d="M159.07,212.51c-.51-5.43-1.38-10.34-1.39-15.25-.09-59.33.25-118.65-.3-178C157.26,6.1,161.28,1.42,174.74,2c24.25,1,48.59.71,72.87.11,14.92-.36,22.46,6.16,22.62,20.74.28,23.73.23,47.46,0,71.19-.13,14.25-8.24,21.65-21.93,23.24-13.45,1.58-26.93,3.7-40.43,4C195,121.42,191.41,127,192.07,139c.83,15.21-1,30.62.52,45.72,1.83,17.63-3.81,26.82-22.17,26.72C167.11,211.45,163.8,212.06,159.07,212.51Zm11.33-23.19,5.2.08c.28-5.26.77-10.53.8-15.8.11-18.08.53-36.18-.12-54.24-.39-10.85,3.48-14.87,14.43-15.38a443.13,443.13,0,0,0,52.18-5.51c4.33-.72,10.88-6.82,11.06-10.7,1.05-22.55.8-45.19.18-67.77-.09-3.22-4.56-9.07-7-9.06-25.66.15-51.32,1.24-76.75,2.06Z"/><path d="M346.15,178.93l-33.26,5.75V2.7c7.34-.46,14.38-.89,21.41-1.35,8.57-.57,12,3.28,11.95,12C346,67.94,346.15,122.58,346.15,178.93ZM329.32,11.67l-3.81-.12v150l3.81,0Z"/></g></g></svg>